<svg width="29" height="29" viewBox="0 0 29 29" fill="none" xmlns="http://www.w3.org/2000/svg">
<path d="M17.5764 14.5005L26.8712 5.20566L28.7879 3.28888C29.0707 3.00612 29.0707 2.54664 28.7879 2.26388L26.737 0.212976C26.4543 -0.0697832 25.9948 -0.0697832 25.712 0.212976L14.5005 11.4245L3.28888 0.212069C3.00613 -0.0706897 2.54664 -0.0706897 2.26388 0.212069L0.212069 2.26298C-0.0706897 2.54574 -0.0706897 3.00522 0.212069 3.28798L11.4245 14.5005L0.212069 25.712C-0.0706897 25.9948 -0.0706897 26.4543 0.212069 26.737L2.26298 28.7879C2.54574 29.0707 3.00522 29.0707 3.28798 28.7879L14.5005 17.5764L23.7952 26.8712L25.712 28.7879C25.9948 29.0707 26.4543 29.0707 26.737 28.7879L28.7879 26.737C29.0707 26.4543 29.0707 25.9948 28.7879 25.712L17.5764 14.5005Z" fill="#FF0000"/>
</svg>
