<svg width="14" height="18" viewBox="0 0 14 18" fill="none" xmlns="http://www.w3.org/2000/svg">
<path d="M12.5263 15.0058C12.5263 15.7265 12.2435 16.4177 11.7401 16.9273C11.2367 17.4369 10.554 17.7232 9.8421 17.7232H3.57895C2.86705 17.7232 2.18431 17.4369 1.68092 16.9273C1.17754 16.4177 0.894737 15.7265 0.894737 15.0058V4.13644H0V1.41909H4.02632L4.92105 0.513306H8.5L9.39474 1.41909H13.4211V4.13644H12.5263V15.0058ZM1.78947 4.13644V15.0058C1.78947 15.4863 1.97801 15.9471 2.3136 16.2868C2.64919 16.6265 3.10435 16.8174 3.57895 16.8174H9.8421C10.3167 16.8174 10.7719 16.6265 11.1075 16.2868C11.443 15.9471 11.6316 15.4863 11.6316 15.0058V4.13644H1.78947ZM12.5263 3.23066V2.32487H8.94737L8.05263 1.41909H5.36842L4.47368 2.32487H0.894737V3.23066H12.5263ZM3.57895 5.94801H4.47368V15.0058H3.57895V5.94801ZM8.94737 5.94801H9.8421V15.0058H8.94737V5.94801Z" fill="#FF0000" fill-opacity="0.7"/>
</svg>
