<svg width="17" height="18" viewBox="0 0 17 18" fill="none" xmlns="http://www.w3.org/2000/svg">
<path d="M16.7068 4.60662L14.3748 6.96752L10.6249 3.17104L12.9568 0.81014C13.0496 0.716043 13.1598 0.641392 13.2812 0.590457C13.4025 0.539523 13.5325 0.513306 13.6638 0.513306C13.7952 0.513306 13.9252 0.539523 14.0465 0.590457C14.1678 0.641392 14.278 0.716043 14.3708 0.81014L16.7068 3.17509C16.7997 3.26903 16.8735 3.3806 16.9238 3.50342C16.9741 3.62624 17 3.75789 17 3.89085C17 4.02382 16.9741 4.15547 16.9238 4.27829C16.8735 4.40111 16.7997 4.51268 16.7068 4.60662ZM0 13.9267L10.0649 3.73798L13.8148 7.53446L3.74996 17.7232H0.000999916V13.9267H0ZM13.6218 1.57146L12.0819 3.12953L14.4188 5.49347L15.9568 3.9354L13.6218 1.57146ZM12.3579 7.58002L10.0229 5.21507L1.00099 14.3479V16.7128H3.33696L12.3579 7.58002Z" fill="#3F8E00" fill-opacity="0.7"/>
</svg>
