<svg width="18" height="14" viewBox="0 0 18 14" fill="none" xmlns="http://www.w3.org/2000/svg">
<path d="M5.625 5.63242C5.625 5.32305 5.87813 5.06992 6.1875 5.06992H11.25V1.76875C11.25 1.51914 11.5523 1.39258 11.7281 1.56836L16.7063 6.59922C16.9277 6.8207 16.9277 7.17578 16.7063 7.39727L11.7281 12.4281C11.5523 12.6039 11.25 12.4809 11.25 12.2277V8.92656H6.1875C5.87813 8.92656 5.625 8.67344 5.625 8.36406V5.63242ZM4.5 5.63242V8.36406C4.5 9.2957 5.25586 10.0516 6.1875 10.0516H10.125V12.2277C10.125 13.4758 11.6367 14.1086 12.5227 13.2227L17.5043 8.19531C18.1652 7.53438 18.1652 6.46562 17.5043 5.80469L12.5227 0.773828C11.6402 -0.108594 10.125 0.517187 10.125 1.76875V3.94492H6.1875C5.25586 3.94492 4.5 4.7043 4.5 5.63242ZM0 1.9375V12.0625C0 12.9941 0.755859 13.75 1.6875 13.75H6.32812C6.56016 13.75 6.75 13.5602 6.75 13.3281V13.0469C6.75 12.8148 6.56016 12.625 6.32812 12.625H1.6875C1.37812 12.625 1.125 12.3719 1.125 12.0625V1.9375C1.125 1.62812 1.37812 1.375 1.6875 1.375H6.32812C6.56016 1.375 6.75 1.18516 6.75 0.953125V0.671875C6.75 0.439844 6.56016 0.25 6.32812 0.25H1.6875C0.755859 0.25 0 1.00586 0 1.9375Z" fill="#6C6C6C"/>
</svg>
